<?xml version="1.0" encoding="UTF-8" standalone="no"?>
<!-- Created with Inkscape (http://www.inkscape.org/) -->

<svg
   width="1024"
   height="1024"
   viewBox="0 0 270.93333 270.93333"
   version="1.1"
   id="svg1"
   xml:space="preserve"
   inkscape:version="1.4.3 (0d15f75, 2025-12-25)"
   sodipodi:docname="morcea.svg"
   xmlns:inkscape="http://www.inkscape.org/namespaces/inkscape"
   xmlns:sodipodi="http://sodipodi.sourceforge.net/DTD/sodipodi-0.dtd"
   xmlns="http://www.w3.org/2000/svg"
   xmlns:svg="http://www.w3.org/2000/svg"><sodipodi:namedview
     id="namedview1"
     pagecolor="#ffffff"
     bordercolor="#000000"
     borderopacity="0.25"
     inkscape:showpageshadow="2"
     inkscape:pageopacity="0.0"
     inkscape:pagecheckerboard="0"
     inkscape:deskcolor="#d1d1d1"
     inkscape:document-units="mm"
     inkscape:zoom="0.65053824"
     inkscape:cx="576.44574"
     inkscape:cy="570.29699"
     inkscape:window-width="2693"
     inkscape:window-height="1139"
     inkscape:window-x="0"
     inkscape:window-y="30"
     inkscape:window-maximized="0"
     inkscape:current-layer="layer1" /><defs
     id="defs1" /><g
     inkscape:label="Layer 1"
     inkscape:groupmode="layer"
     id="layer1"><path
       style="fill:#000000"
       d="M 32.291503,134.35325 C 28.177672,125.14297 24.717855,117.506 24.603021,117.38221 l -0.20879,-0.22507 -0.137942,0.48966 c -0.07587,0.26931 -1.480916,7.60364 -3.122329,16.29851 l -2.984387,15.80885 h -2.597536 -2.597536 l 0.138863,-0.59531 c 0.290639,-1.24599 9.396477,-48.92318 9.401546,-49.225488 0.0029,-0.174758 3.806414,8.462048 8.452186,19.192898 4.645772,10.73085 8.558825,19.71071 8.695674,19.95524 l 0.248816,0.44461 0.391269,-0.77295 c 0.215198,-0.42513 4.05312,-9.2264 8.528714,-19.55837 4.475594,-10.33198 8.216475,-18.87281 8.313067,-18.97961 l 0.175622,-0.1942 4.758572,24.80045 4.758571,24.80044 -2.486557,0.0761 c -1.367606,0.0419 -2.529391,0.0333 -2.581745,-0.0191 -0.05235,-0.0524 -1.47658,-7.34943 -3.164948,-16.21573 -1.688369,-8.86629 -3.118468,-16.17014 -3.177999,-16.23077 -0.05953,-0.0606 -0.147783,-0.0606 -0.196116,0 -0.04833,0.0606 -3.449451,7.61118 -7.558041,16.77899 -4.10859,9.16781 -7.562557,16.76303 -7.675482,16.87826 l -0.205317,0.2095 z m 55.878613,15.5285 c -2.222428,-0.50621 -4.83074,-1.57091 -7.062472,-2.88285 l -1.839227,-1.0812 -2.129523,-2.12948 -2.129523,-2.12948 -1.245688,-2.10385 -1.245689,-2.10386 -0.840986,-2.51354 -0.840986,-2.51354 -0.130369,-3.05817 -0.13037,-3.05818 0.446272,-2.20244 0.446272,-2.20245 0.683902,-1.70835 0.683902,-1.70836 1.280227,-1.96111 c 0.704124,-1.07861 1.788528,-2.51261 2.409786,-3.18667 1.527719,-1.65756 3.736294,-3.32349 6.070914,-4.57929 l 1.937813,-1.04235 2.381249,-0.71424 2.38125,-0.71423 3.439583,0.002 3.439584,0.002 2.116666,0.55905 2.116667,0.55904 2.38125,1.19858 2.38125,1.19859 1.91399,1.58719 1.91399,1.58719 1.43121,1.9155 1.43122,1.9155 0.95207,1.90725 0.95207,1.90725 0.58986,2.0615 0.58986,2.0615 0,3.57187 0,3.57187 -0.60327,2.11667 -0.60326,2.11667 -1.17882,2.21982 -1.17882,2.21983 -1.36344,1.68047 -1.36344,1.68048 -1.82679,1.45544 -1.82678,1.45545 -2.42837,1.19113 -2.42836,1.19114 -1.587504,0.43198 -1.587499,0.43197 -3.571875,0.0866 -3.571875,0.0865 z m 8.882143,-4.23328 1.669972,-0.3937 1.567209,-0.77758 c 2.19743,-1.09026 3.59547,-2.10206 5.27142,-3.8151 l 1.44733,-1.47935 1.00442,-1.6596 1.00441,-1.65961 0.70563,-2.11666 0.70562,-2.11667 0.0101,-3.30729 0.0101,-3.30729 -0.47949,-1.5875 -0.4795,-1.5875 -1.09541,-2.11667 -1.09542,-2.11666 -1.9894,-2.00954 -1.98939,-2.00953 -1.7198,-0.94363 -1.719787,-0.94363 -1.852083,-0.5652 -1.852083,-0.5652 -2.038294,-0.15793 -2.038294,-0.15793 -2.062748,0.33034 -2.062747,0.33034 -1.572507,0.63622 c -0.864878,0.34993 -2.321936,1.1245 -3.237907,1.72128 l -1.665402,1.08505 -1.524592,1.64592 -1.524592,1.64591 -0.878573,1.47765 -0.878574,1.47764 -0.667716,1.9407 -0.667717,1.9407 -0.142909,2.80385 -0.142908,2.80384 0.452646,2.03456 0.452646,2.03456 1.067819,2.13344 1.06782,2.13343 1.747239,1.85217 c 0.960981,1.01869 2.25296,2.20011 2.871064,2.62538 1.655418,1.13895 3.712218,2.12687 5.508746,2.64594 l 1.5875,0.45867 2.778125,0.0149 2.778125,0.0149 z m 71.090441,4.24348 c -2.29648,-0.5053 -5.02493,-1.58965 -7.10868,-2.82516 l -1.81702,-1.07736 -1.99605,-1.88795 -1.99605,-1.88795 -1.25102,-1.90753 -1.25102,-1.90754 -0.81751,-1.96373 -0.8175,-1.96374 -0.43227,-2.47873 -0.43226,-2.47873 0.1666,-2.43264 0.1666,-2.43265 0.6604,-2.27891 c 0.77406,-2.67113 1.6131,-4.42425 3.16605,-6.61528 l 1.126,-1.58866 1.95148,-1.85093 1.95147,-1.85092 1.85185,-1.08778 c 2.20862,-1.29733 4.70547,-2.30552 6.87893,-2.77759 l 1.5875,-0.3448 3.04271,0.0199 3.04271,0.0199 2.05886,0.55511 c 2.39236,0.64502 4.0045,1.32076 5.94478,2.49178 l 1.38906,0.83835 v 2.71161 2.71162 l -1.74437,-1.32031 c -2.1205,-1.605 -3.6257,-2.38559 -6.06083,-3.14312 l -1.85209,-0.57615 -2.24896,-0.14171 -2.24895,-0.1417 -1.97507,0.42076 -1.97507,0.42076 -1.93576,0.91929 -1.93576,0.91929 -1.52731,1.17523 -1.52731,1.17524 -1.00171,1.22246 c -0.55095,0.67236 -1.41199,1.90378 -1.91343,2.73651 l -0.91172,1.51404 -0.68885,2.11666 -0.68885,2.11667 -0.007,3.175 -0.007,3.175 0.69803,2.11666 0.69803,2.11667 0.99896,1.71786 0.99896,1.71787 1.98437,1.99391 1.98438,1.9939 2.11666,1.09403 2.11667,1.09403 1.62569,0.41972 1.62569,0.41972 h 2.56945 2.56945 l 1.62569,-0.41614 1.6257,-0.41613 1.92289,-0.91897 1.9229,-0.91897 1.4468,-1.17843 c 0.79574,-0.64814 1.50802,-1.17844 1.58283,-1.17844 0.0748,0 0.13603,1.182 0.13603,2.62668 v 2.62667 l -1.52135,0.9114 c -1.95423,1.17073 -4.68076,2.24197 -6.90751,2.71395 l -1.75759,0.37253 -2.64584,-0.0164 -2.64583,-0.0164 z m -46.16979,-21.60191 v -21.46412 l 5.4901,0.1376 5.49011,0.13761 1.71979,0.45993 1.71979,0.45993 1.54311,0.77304 1.5431,0.77304 1.18946,1.18946 1.18946,1.18946 0.65132,1.47275 0.65132,1.47275 0.24121,1.90248 0.24121,1.90249 -0.23188,1.64047 c -0.29288,2.07202 -0.70806,3.33834 -1.53398,4.67869 -0.89565,1.4535 -2.08338,2.66271 -3.52268,3.58639 l -1.21335,0.77867 -2.0725,0.53006 c -1.13988,0.29153 -2.11313,0.57068 -2.16278,0.62034 -0.0497,0.0496 2.94573,4.36539 6.65641,9.59053 l 6.74669,9.50026 -2.69309,0.076 -2.6931,0.076 -0.20668,-0.34054 c -0.11368,-0.1873 -3.04489,-4.4482 -6.5138,-9.46866 l -6.30711,-9.12813 -0.7121,-0.0837 -0.71211,-0.0837 v 9.54258 9.54257 h -2.24896 -2.24896 z m 10.63646,-1.84797 1.40208,-0.29335 1.5048,-0.79303 1.50481,-0.79303 0.68411,-0.98717 c 0.37626,-0.54295 0.80043,-1.39275 0.94259,-1.88845 l 0.25848,-0.90126 v -1.95543 -1.95542 l -0.302,-1.008 -0.302,-1.008 -0.7831,-0.95003 -0.78311,-0.95004 -1.24063,-0.62868 -1.24064,-0.62868 -1.55931,-0.28825 -1.55931,-0.28826 h -2.33266 -2.33265 v 7.80521 7.80521 h 2.36822 2.36823 z m 61.06562,1.88084 v -21.43125 h 10.98021 10.98021 v 2.11667 2.11666 h -8.73125 -8.73125 v 6.4823 6.48229 h 8.46666 8.46667 v 2.11666 2.11667 h -8.46667 -8.46666 v 8.59896 8.59896 h 8.73125 8.73125 v 2.11666 2.11667 H 204.6552 193.67499 Z m 26.8179,20.57135 c 1.96827,-4.61594 19.05783,-43.24248 19.19974,-43.39607 l 0.18742,-0.20284 9.44126,22.03097 c 5.19269,12.11703 9.44124,22.12473 9.44122,22.23933 l -4e-5,0.20837 -2.42457,-0.0761 -2.42456,-0.0761 -2.53638,-6.14634 -2.53637,-6.14633 -9.2736,-0.005 -9.2736,-0.005 -2.62227,6.21771 -2.62228,6.21771 h -2.46132 -2.46132 z m 26.36335,-15.86016 c 0,-0.48391 -6.9794,-17.14661 -7.18209,-17.14661 -0.20101,0 -7.37,16.69244 -7.37,17.16046 v 0.30204 h 7.27605 7.27604 z m -44.51356,-30.45363 c -0.54427,-0.32098 -0.99076,-0.67569 -0.99218,-0.78824 -0.003,-0.226 5.36704,-7.709596 6.0864,-8.48213 l 0.45133,-0.484686 2.17184,0.992775 2.17184,0.992774 -4.18213,4.188266 -4.18213,4.188261 -0.26768,-0.0117 c -0.14723,-0.006 -0.71301,-0.27433 -1.25729,-0.59531 z"
       id="path47" /></g></svg>
